<svg width="150" height="50" viewBox="0 0 150 50" fill="none" xmlns="http://www.w3.org/2000/svg">
<path d="M10.3633 11.4062V37H6.9707V11.4062H10.3633ZM21.0859 22.9199V25.6973H9.625V22.9199H21.0859ZM22.8262 11.4062V14.1836H9.625V11.4062H22.8262ZM29.9102 17.9805V37H26.6406V17.9805H29.9102ZM26.3945 12.9355C26.3945 12.4082 26.5527 11.9629 26.8691 11.5996C27.1973 11.2363 27.6777 11.0547 28.3105 11.0547C28.9316 11.0547 29.4062 11.2363 29.7344 11.5996C30.0742 11.9629 30.2441 12.4082 30.2441 12.9355C30.2441 13.4395 30.0742 13.873 29.7344 14.2363C29.4062 14.5879 28.9316 14.7637 28.3105 14.7637C27.6777 14.7637 27.1973 14.5879 26.8691 14.2363C26.5527 13.873 26.3945 13.4395 26.3945 12.9355ZM38.3828 22.041V37H35.1309V17.9805H38.207L38.3828 22.041ZM37.6094 26.7695L36.2559 26.7168C36.2676 25.416 36.4609 24.2148 36.8359 23.1133C37.2109 22 37.7383 21.0332 38.418 20.2129C39.0977 19.3926 39.9062 18.7598 40.8438 18.3145C41.793 17.8574 42.8418 17.6289 43.9902 17.6289C44.9277 17.6289 45.7715 17.7578 46.5215 18.0156C47.2715 18.2617 47.9102 18.6602 48.4375 19.2109C48.9766 19.7617 49.3867 20.4766 49.668 21.3555C49.9492 22.2227 50.0898 23.2832 50.0898 24.5371V37H46.8203V24.502C46.8203 23.5059 46.6738 22.709 46.3809 22.1113C46.0879 21.502 45.6602 21.0625 45.0977 20.793C44.5352 20.5117 43.8438 20.3711 43.0234 20.3711C42.2148 20.3711 41.4766 20.541 40.8086 20.8809C40.1523 21.2207 39.584 21.6895 39.1035 22.2871C38.6348 22.8848 38.2656 23.5703 37.9961 24.3438C37.7383 25.1055 37.6094 25.9141 37.6094 26.7695Z" fill="black"/>
<rect x="55" y="7" width="89" height="36" rx="10" fill="#505CC6"/>
<path d="M78.6113 30.5312C78.6113 29.9336 78.5176 29.4062 78.3301 28.9492C78.1543 28.4805 77.8379 28.0586 77.3809 27.6836C76.9355 27.3086 76.3145 26.9512 75.5176 26.6113C74.7324 26.2715 73.7363 25.9258 72.5293 25.5742C71.2637 25.1992 70.1211 24.7832 69.1016 24.3262C68.082 23.8574 67.209 23.3242 66.4824 22.7266C65.7559 22.1289 65.1992 21.4434 64.8125 20.6699C64.4258 19.8965 64.2324 19.0117 64.2324 18.0156C64.2324 17.0195 64.4375 16.0996 64.8477 15.2559C65.2578 14.4121 65.8438 13.6797 66.6055 13.0586C67.3789 12.4258 68.2988 11.9336 69.3652 11.582C70.4316 11.2305 71.6211 11.0547 72.9336 11.0547C74.8555 11.0547 76.4844 11.4238 77.8203 12.1621C79.168 12.8887 80.1934 13.8438 80.8965 15.0273C81.5996 16.1992 81.9512 17.4531 81.9512 18.7891H78.5762C78.5762 17.8281 78.3711 16.9785 77.9609 16.2402C77.5508 15.4902 76.9297 14.9043 76.0977 14.4824C75.2656 14.0488 74.2109 13.832 72.9336 13.832C71.7266 13.832 70.7305 14.0137 69.9453 14.377C69.1602 14.7402 68.5742 15.2324 68.1875 15.8535C67.8125 16.4746 67.625 17.1836 67.625 17.9805C67.625 18.5195 67.7363 19.0117 67.959 19.457C68.1934 19.8906 68.5508 20.2949 69.0312 20.6699C69.5234 21.0449 70.1445 21.3906 70.8945 21.707C71.6562 22.0234 72.5645 22.3281 73.6191 22.6211C75.0723 23.0312 76.3262 23.4883 77.3809 23.9922C78.4355 24.4961 79.3027 25.0645 79.9824 25.6973C80.6738 26.3184 81.1836 27.0273 81.5117 27.8242C81.8516 28.6094 82.0215 29.5 82.0215 30.4961C82.0215 31.5391 81.8105 32.4824 81.3887 33.3262C80.9668 34.1699 80.3633 34.8906 79.5781 35.4883C78.793 36.0859 77.8496 36.5488 76.748 36.877C75.6582 37.1934 74.4395 37.3516 73.0918 37.3516C71.9082 37.3516 70.7422 37.1875 69.5938 36.8594C68.457 36.5312 67.4199 36.0391 66.4824 35.3828C65.5566 34.7266 64.8125 33.918 64.25 32.957C63.6992 31.9844 63.4238 30.8594 63.4238 29.582H66.7988C66.7988 30.4609 66.9688 31.2168 67.3086 31.8496C67.6484 32.4707 68.1113 32.9863 68.6973 33.3965C69.2949 33.8066 69.9688 34.1113 70.7188 34.3105C71.4805 34.498 72.2715 34.5918 73.0918 34.5918C74.2754 34.5918 75.2773 34.4277 76.0977 34.0996C76.918 33.7715 77.5391 33.3027 77.9609 32.6934C78.3945 32.084 78.6113 31.3633 78.6113 30.5312ZM97.4902 32.6055V17.9805H100.76V37H97.6484L97.4902 32.6055ZM98.1055 28.5977L99.459 28.5625C99.459 29.8281 99.3242 31 99.0547 32.0781C98.7969 33.1445 98.375 34.0703 97.7891 34.8555C97.2031 35.6406 96.4355 36.2559 95.4863 36.7012C94.5371 37.1348 93.3828 37.3516 92.0234 37.3516C91.0977 37.3516 90.248 37.2168 89.4746 36.9473C88.7129 36.6777 88.0566 36.2617 87.5059 35.6992C86.9551 35.1367 86.5273 34.4043 86.2227 33.502C85.9297 32.5996 85.7832 31.5156 85.7832 30.25V17.9805H89.0352V30.2852C89.0352 31.1406 89.1289 31.8496 89.3164 32.4121C89.5156 32.9629 89.7793 33.4023 90.1074 33.7305C90.4473 34.0469 90.8223 34.2695 91.2324 34.3984C91.6543 34.5273 92.0879 34.5918 92.5332 34.5918C93.916 34.5918 95.0117 34.3281 95.8203 33.8008C96.6289 33.2617 97.209 32.541 97.5605 31.6387C97.9238 30.7246 98.1055 29.7109 98.1055 28.5977ZM108.951 21.7598V37H105.682V17.9805H108.775L108.951 21.7598ZM108.283 26.7695L106.771 26.7168C106.783 25.416 106.953 24.2148 107.281 23.1133C107.609 22 108.096 21.0332 108.74 20.2129C109.385 19.3926 110.188 18.7598 111.148 18.3145C112.109 17.8574 113.223 17.6289 114.488 17.6289C115.379 17.6289 116.199 17.7578 116.949 18.0156C117.699 18.2617 118.35 18.6543 118.9 19.1934C119.451 19.7324 119.879 20.4238 120.184 21.2676C120.488 22.1113 120.641 23.1309 120.641 24.3262V37H117.389V24.4844C117.389 23.4883 117.219 22.6914 116.879 22.0938C116.551 21.4961 116.082 21.0625 115.473 20.793C114.863 20.5117 114.148 20.3711 113.328 20.3711C112.367 20.3711 111.564 20.541 110.92 20.8809C110.275 21.2207 109.76 21.6895 109.373 22.2871C108.986 22.8848 108.705 23.5703 108.529 24.3438C108.365 25.1055 108.283 25.9141 108.283 26.7695ZM120.605 24.9766L118.426 25.6445C118.438 24.6016 118.607 23.5996 118.936 22.6387C119.275 21.6777 119.762 20.8223 120.395 20.0723C121.039 19.3223 121.83 18.7305 122.768 18.2969C123.705 17.8516 124.777 17.6289 125.984 17.6289C127.004 17.6289 127.906 17.7637 128.691 18.0332C129.488 18.3027 130.156 18.7188 130.695 19.2812C131.246 19.832 131.662 20.541 131.943 21.4082C132.225 22.2754 132.365 23.3066 132.365 24.502V37H129.096V24.4668C129.096 23.4004 128.926 22.5742 128.586 21.9883C128.258 21.3906 127.789 20.9746 127.18 20.7402C126.582 20.4941 125.867 20.3711 125.035 20.3711C124.32 20.3711 123.688 20.4941 123.137 20.7402C122.586 20.9863 122.123 21.3262 121.748 21.7598C121.373 22.1816 121.086 22.668 120.887 23.2188C120.699 23.7695 120.605 24.3555 120.605 24.9766Z" fill="white"/>
</svg>
